<?xml version="1.0" standalone="no"?>
<!DOCTYPE svg PUBLIC "-//W3C//DTD SVG 20010904//EN"
 "http://www.w3.org/TR/2001/REC-SVG-20010904/DTD/svg10.dtd">
<svg version="1.0" xmlns="http://www.w3.org/2000/svg"
 width="460.000000pt" height="460.000000pt" viewBox="0 0 460.000000 460.000000"
 preserveAspectRatio="xMidYMid meet">
<metadata>
Created by potrace 1.14, written by Peter Selinger 2001-2017
</metadata>
<g transform="translate(0.000000,460.000000) scale(0.100000,-0.100000)"
fill="#000000" stroke="none">
<path d="M2370 2119 c0 -5 5 -7 10 -4 6 3 10 8 10 11 0 2 -4 4 -10 4 -5 0 -10
-5 -10 -11z"/>
<path d="M2406 2103 c-12 -12 -6 -23 14 -23 13 0 18 -5 14 -15 -4 -9 0 -15 10
-15 10 0 16 -8 16 -21 0 -15 5 -19 15 -15 17 6 36 -29 28 -51 -3 -7 2 -13 11
-13 12 0 15 -8 12 -32 -5 -39 2 -58 20 -58 12 0 14 -36 14 -200 0 -194 -1
-200 -20 -200 -17 0 -19 -5 -14 -25 4 -18 1 -27 -10 -31 -10 -4 -16 -18 -16
-35 0 -23 -4 -29 -21 -29 -14 0 -19 -5 -16 -14 3 -8 -2 -16 -15 -19 -12 -3
-17 -10 -13 -17 4 -7 -2 -14 -14 -17 -12 -3 -21 -12 -21 -19 0 -8 -7 -14 -15
-14 -8 0 -15 -7 -15 -15 0 -11 -12 -15 -50 -15 -38 0 -50 -4 -50 -15 0 -13
-22 -15 -135 -15 -115 0 -134 2 -129 15 5 11 -1 15 -24 15 -25 0 -30 5 -35 30
-4 17 -11 30 -17 30 -6 0 -8 -5 -5 -11 4 -6 -2 -13 -14 -16 -12 -3 -21 -12
-21 -19 0 -8 -7 -14 -15 -14 -10 0 -15 -10 -15 -31 0 -22 -6 -32 -19 -36 -14
-4 -18 -13 -17 -45 2 -32 -2 -42 -16 -46 -11 -3 -17 -10 -14 -18 5 -13 -6 -18
-26 -15 -5 0 -8 -15 -8 -34 0 -19 -4 -35 -10 -35 -13 0 -45 -32 -53 -54 -4 -9
-11 -14 -17 -11 -5 3 -10 -1 -10 -9 0 -12 -10 -16 -35 -16 -19 0 -35 -5 -35
-10 0 -6 -13 -24 -29 -39 -16 -16 -31 -42 -33 -57 -2 -17 -8 -28 -15 -27 -7 2
-13 -4 -13 -12 0 -8 -9 -15 -20 -15 -11 0 -20 -7 -20 -15 0 -8 -7 -15 -15 -15
-8 0 -15 -9 -15 -20 0 -15 -7 -20 -25 -20 -25 0 -65 -31 -65 -50 0 -5 -9 -10
-21 -10 -15 0 -19 -5 -15 -15 4 -12 -3 -15 -29 -15 -30 0 -35 -3 -35 -24 0
-13 -3 -32 -6 -41 -5 -13 -9 -14 -15 -3 -7 11 -11 10 -19 -2 -9 -13 -10 -13
-10 0 -1 9 -5 6 -10 -7 -5 -13 -17 -23 -25 -23 -9 0 -13 -5 -10 -11 4 -6 -2
-13 -14 -16 -12 -3 -21 -12 -21 -19 0 -10 -16 -14 -60 -14 -47 0 -60 -3 -60
-15 0 -8 -9 -16 -20 -16 -41 -3 -45 -4 -45 -19 0 -12 -15 -16 -67 -18 -52 -2
-68 -6 -68 -17 0 -8 -7 -15 -15 -15 -8 0 -15 -7 -15 -15 0 -8 -7 -15 -15 -15
-8 0 -15 -7 -15 -15 0 -10 -10 -15 -30 -15 -20 0 -30 -5 -30 -15 0 -8 -9 -15
-20 -15 -11 0 -20 -6 -20 -14 0 -8 -7 -16 -15 -20 -8 -3 -15 -12 -15 -21 0
-12 -13 -15 -65 -15 -51 0 -65 -3 -65 -15 0 -9 -9 -15 -24 -15 -13 0 -26 -7
-30 -15 -4 -11 -21 -15 -63 -15 -48 0 -60 -4 -71 -20 -7 -12 -17 -18 -22 -15
-6 3 -10 -1 -10 -9 0 -14 199 -16 2040 -16 1807 0 2040 2 2040 15 0 8 -9 15
-20 15 -11 0 -20 7 -20 15 0 12 -13 15 -59 15 -43 0 -60 4 -65 15 -3 9 -18 15
-36 15 -20 0 -30 5 -30 15 0 12 -13 15 -60 15 -48 0 -60 3 -60 16 0 9 -9 18
-20 21 -11 3 -20 12 -20 19 0 8 -7 14 -15 14 -8 0 -15 7 -15 15 0 10 -10 15
-30 15 -20 0 -30 5 -30 15 0 8 -7 15 -15 15 -8 0 -15 6 -15 14 0 8 -9 18 -20
21 -11 3 -20 11 -20 17 0 6 -23 8 -60 6 -55 -3 -60 -1 -65 21 -4 17 -11 22
-26 18 -12 -3 -23 1 -29 14 -9 15 -22 19 -70 19 -44 0 -60 4 -60 14 0 7 -9 16
-21 19 -12 3 -18 10 -14 16 3 7 -2 11 -14 11 -14 0 -21 6 -21 19 0 14 -6 17
-25 13 -17 -3 -27 1 -31 12 -3 9 -12 16 -19 16 -8 0 -17 9 -20 21 -5 16 -13
20 -32 16 -17 -3 -26 1 -31 12 -3 9 -12 20 -19 24 -7 5 -11 12 -8 18 4 5 -1 9
-9 9 -8 0 -19 6 -23 13 -4 8 -16 17 -26 20 -10 4 -15 11 -12 17 3 6 -1 13 -9
16 -9 3 -16 17 -16 30 0 13 -9 28 -20 34 -11 6 -18 15 -15 21 4 5 -1 9 -10 9
-9 0 -19 9 -22 20 -3 11 -14 20 -25 20 -10 0 -17 4 -14 8 3 5 -5 17 -17 28
-22 19 -26 21 -59 23 -10 0 -18 8 -18 16 0 8 -7 15 -15 15 -8 0 -15 7 -15 15
0 8 -7 15 -15 15 -8 0 -15 7 -15 15 0 8 -7 15 -15 15 -10 0 -15 10 -15 31 0
22 -5 32 -20 36 -11 3 -20 11 -20 18 0 7 -7 15 -15 19 -9 3 -15 18 -15 35 0
16 -6 32 -12 34 -7 3 -4 6 6 6 20 1 13 16 -7 16 -7 0 -13 15 -15 33 -3 32 -16
42 -25 20 -3 -7 -6 -1 -6 15 -1 17 -6 27 -16 27 -12 0 -15 13 -15 55 0 42 3
55 15 55 13 0 15 23 15 149 0 123 -3 150 -15 155 -11 4 -15 21 -15 65 0 51 -3
59 -21 64 -18 5 -20 11 -15 32 6 22 3 28 -14 32 -14 4 -20 14 -20 33 0 15 -6
30 -14 33 -8 3 -12 16 -10 32 2 20 -3 29 -17 32 -10 3 -19 12 -19 20 0 8 -5
11 -11 8 -6 -4 -13 2 -16 14 -3 12 -12 21 -19 21 -8 0 -14 7 -14 15 0 8 -7 15
-15 15 -7 0 -18 6 -22 13 -10 16 -39 28 -47 20z m-469 -905 c-3 -7 -5 -2 -5
12 0 14 2 19 5 13 2 -7 2 -19 0 -25z"/>
</g>
</svg>
